<svg width="184" height="128" viewBox="0 0 184 128" fill="none" xmlns="http://www.w3.org/2000/svg">
<path d="M44.5658 87.5735C41.4849 87.5735 39.193 86.6342 37.6901 84.7556C36.1872 82.877 35.4358 80.6227 35.4358 77.9926C35.4358 76.2643 35.7364 74.0851 36.3375 71.4551C37.0138 68.825 37.878 66.0822 38.93 63.2267C39.982 60.2961 41.1843 57.5533 42.5369 54.9984C43.9647 52.4435 45.4676 50.3771 47.0456 48.799C48.6988 47.1458 50.3144 46.3193 51.8924 46.3193C52.6439 46.3193 53.2826 46.5447 53.8086 46.9956C54.3346 47.4464 54.5976 48.1227 54.5976 49.0244C54.5976 49.9262 53.9965 51.3915 52.7942 53.4204C51.667 55.4493 50.3144 57.7788 48.7364 60.4088C47.2335 62.9637 45.8809 65.6689 44.6786 68.5244C43.5514 71.3799 42.9878 74.0851 42.9878 76.64C42.9878 79.2701 43.4011 81.036 44.2277 81.9377C45.1294 82.7643 46.482 83.1776 48.2855 83.1776C50.8404 83.1776 53.5832 81.9001 56.5138 79.3452C59.4444 76.7903 62.5254 72.3192 65.7566 65.9319L66.9965 67.2845C64.667 73.747 61.4733 78.7441 57.4155 82.2759C53.3577 85.8076 49.0745 87.5735 44.5658 87.5735Z" fill="white"/>
<path d="M83.3615 87.4614C80.7314 87.4614 78.6274 86.7476 77.0494 85.3198C75.5465 83.9672 74.795 82.1637 74.795 79.9094C74.795 77.6551 75.321 75.3256 76.3731 72.921C77.4251 70.4412 78.4395 67.999 79.4164 65.5944C80.4684 63.1898 80.9944 61.0482 80.9944 59.1695C80.9944 56.9904 80.3557 55.3372 79.0783 54.21C77.8008 53.0077 76.4106 51.9557 74.9077 51.054C73.2546 55.3372 71.4511 59.4701 69.4974 63.4528C67.5436 67.3603 65.9656 70.3661 64.7633 72.4701L63.5234 70.1031C64.5754 68.1493 65.928 65.3314 67.5812 61.6493C69.3095 57.8921 71.0002 53.684 72.6534 49.025C71.902 48.2736 71.5262 47.3343 71.5262 46.2071C71.5262 44.0279 72.1274 42.1869 73.3297 40.684C74.6072 39.1811 75.6216 38.4297 76.3731 38.4297C77.2748 38.4297 77.8008 38.843 77.9511 39.6696C78.1765 40.421 78.2892 40.9846 78.2892 41.3603C78.2892 41.736 78.1014 42.4499 77.7257 43.5019C77.3499 44.554 77.1245 45.2303 77.0494 45.5308C77.1245 46.5077 77.7257 47.447 78.8528 48.3488C80.0551 49.1753 81.4077 50.1146 82.9106 51.1667C84.4887 52.2187 85.8413 53.5337 86.9684 55.1117C88.1707 56.6898 88.7719 58.6811 88.7719 61.0857C88.7719 63.2649 88.2835 65.5192 87.3066 67.8487C86.4049 70.1782 85.4655 72.3574 84.4887 74.3863C83.5869 76.4152 83.1361 78.2187 83.1361 79.7967C83.1361 80.999 83.4366 81.8256 84.0378 82.2765C84.7141 82.6522 85.4655 82.84 86.2921 82.84C88.0956 82.84 89.9366 82.314 91.8152 81.262C93.769 80.1348 95.6476 78.7071 97.4511 76.9788C99.3297 75.2505 100.983 73.447 102.411 71.5684C103.838 69.6146 104.89 67.8112 105.567 66.158L107.483 67.6233C106.055 70.7794 104.064 73.8979 101.509 76.9788C98.954 80.0597 96.0985 82.577 92.9424 84.5308C89.8615 86.4845 86.6679 87.4614 83.3615 87.4614Z" fill="white"/>
<path d="M108.896 89.8286C106.492 89.8286 104.463 89.0396 102.81 87.4615C101.081 85.8835 100.217 83.4789 100.217 80.2477C100.217 77.6176 100.818 74.7621 102.021 71.6812C103.223 68.5251 104.876 65.4442 106.98 62.4384C109.084 59.3575 111.451 56.5772 114.081 54.0974C116.786 51.6176 119.642 49.6263 122.648 48.1234C125.653 46.6205 128.659 45.8691 131.665 45.8691C134.671 45.8691 137.188 46.6581 139.217 48.2361C141.321 49.8142 142.373 51.9182 142.373 54.5483C142.373 56.4269 141.772 57.7419 140.57 58.4933C139.442 59.2448 138.015 59.5829 136.286 59.5078C136.437 58.8315 136.549 58.1552 136.625 57.4789C136.775 56.8026 136.85 56.1263 136.85 55.45C136.85 53.7968 136.474 52.3691 135.723 51.1668C134.971 49.8893 133.581 49.2506 131.552 49.2506C129.448 49.2506 127.307 50.002 125.127 51.5049C122.948 52.9327 120.844 54.8488 118.815 57.2535C116.862 59.6581 115.096 62.2881 113.518 65.1436C111.94 67.924 110.7 70.6667 109.798 73.3719C108.896 76.0771 108.445 78.5193 108.445 80.6985C108.445 83.4789 109.385 84.869 111.263 84.869C112.992 84.869 114.87 84.0425 116.899 82.3893C119.003 80.7361 121.107 78.6696 123.211 76.1899C125.39 73.6349 127.457 71.0049 129.411 68.2997C131.364 65.5945 133.093 63.1899 134.596 61.0858C134.821 60.635 135.046 60.4095 135.272 60.4095C135.648 60.4847 136.211 60.635 136.963 60.8604C137.714 61.0858 138.39 61.424 138.992 61.8748C139.593 62.3257 139.893 62.8893 139.893 63.5656C139.893 64.2419 139.555 65.1812 138.879 66.3835C138.278 67.5107 137.526 68.8257 136.625 70.3286C135.798 71.7563 135.046 73.2216 134.37 74.7245C133.769 76.2274 133.468 77.6176 133.468 78.8951C133.468 80.0222 133.731 81.1118 134.257 82.1638C134.859 83.1407 135.798 83.6292 137.075 83.6292C139.029 83.6292 141.659 82.2014 144.966 79.3459C148.272 76.4153 151.616 71.9066 154.997 65.8199L156.463 67.2852C154.809 71.343 152.743 74.95 150.263 78.106C147.783 81.187 145.116 83.5916 142.26 85.3199C139.48 87.0482 136.7 87.9124 133.919 87.9124C131.064 87.9124 128.922 87.0107 127.494 85.2072C126.142 83.4789 125.466 81.6003 125.466 79.5714C125.466 79.1956 125.466 78.8199 125.466 78.4442C125.541 78.0685 125.616 77.6552 125.691 77.2043C122.535 81.3373 119.642 84.4557 117.012 86.5598C114.382 88.739 111.677 89.8286 108.896 89.8286Z" fill="white"/>
<path d="M161.135 87.5735C158.054 87.5735 155.762 86.6342 154.259 84.7556C152.757 82.877 152.005 80.6227 152.005 77.9926C152.005 76.2643 152.306 74.0851 152.907 71.4551C153.583 68.825 154.447 66.0822 155.499 63.2267C156.551 60.2961 157.754 57.5533 159.106 54.9984C160.534 52.4435 162.037 50.3771 163.615 48.799C165.268 47.1458 166.884 46.3193 168.462 46.3193C169.213 46.3193 169.852 46.5447 170.378 46.9956C170.904 47.4464 171.167 48.1227 171.167 49.0244C171.167 49.9262 170.566 51.3915 169.363 53.4204C168.236 55.4493 166.884 57.7788 165.306 60.4088C163.803 62.9637 162.45 65.6689 161.248 68.5244C160.121 71.3799 159.557 74.0851 159.557 76.64C159.557 79.2701 159.97 81.036 160.797 81.9377C161.699 82.7643 163.051 83.1776 164.855 83.1776C167.41 83.1776 170.152 81.9001 173.083 79.3452C176.014 76.7903 179.095 72.3192 182.326 65.9319L183.566 67.2845C181.236 73.747 178.043 78.7441 173.985 82.2759C169.927 85.8076 165.644 87.5735 161.135 87.5735Z" fill="white"/>
<path d="M55.6025 38.4677C65.0131 38.4677 72.642 30.8388 72.642 21.4282C72.642 12.0175 65.0131 4.38867 55.6025 4.38867C46.1918 4.38867 38.563 12.0175 38.563 21.4282C38.563 30.8388 46.1918 38.4677 55.6025 38.4677Z" fill="#FF4500"/>
<path d="M10.353 89.6152C11.5128 88.9438 13.8324 88.1979 15.4271 87.8995C17.0218 87.5265 19.6313 87.4519 21.226 87.6757C22.8207 87.8249 25.2853 88.3471 26.6625 88.7946C28.0398 89.2422 31.3017 90.6595 33.9112 92.0023C36.5207 93.345 42.6821 97.3732 47.6837 101.028C52.6853 104.609 58.9916 108.936 61.8186 110.651C64.6456 112.292 68.7048 114.456 70.8794 115.425C73.054 116.395 76.3159 117.663 78.1281 118.185C79.9403 118.708 83.4921 119.528 86.1016 119.976C89.726 120.647 91.6106 120.647 94.0752 119.976C96.1048 119.379 98.3519 118.036 99.9466 116.321C101.541 114.679 102.919 112.292 103.498 110.278C103.933 108.413 104.151 105.579 103.933 103.938C103.643 102.296 102.629 99.6856 101.686 98.1937C100.382 96.105 98.9318 94.9861 96.4672 94.0909C93.5678 93.0466 92.408 93.0466 89.3635 93.7179C87.4064 94.2401 83.2747 96.1796 80.3027 98.0445C77.3307 99.984 73.2715 102.296 71.2419 103.266C68.9948 104.385 66.3853 105.057 64.3556 104.982C62.5435 104.982 60.4413 104.684 59.644 104.385C58.4842 103.938 58.8466 103.639 61.8186 102.744C63.8482 102.222 69.7196 99.0889 74.8662 95.8813C80.0128 92.6736 85.9567 89.6152 87.9138 89.0184C89.9434 88.347 93.4953 87.8995 95.8874 87.8995C98.9318 87.8995 101.179 88.3471 103.426 89.5406C105.238 90.5103 107.558 92.4498 108.718 93.8671C109.805 95.2845 111.182 98.4921 111.834 100.954C112.777 104.609 112.849 106.25 112.197 109.905C111.762 112.367 110.53 116.022 109.442 117.962C108.355 119.976 106.398 122.437 105.166 123.407C103.861 124.377 101.396 125.72 99.7291 126.316C97.9895 126.988 94.8 127.435 92.6255 127.435C90.4508 127.435 86.1741 126.764 83.2022 125.943C80.2302 125.123 73.7064 122.288 68.7048 119.752C63.7032 117.141 54.3524 111.472 47.9011 107.071C41.3773 102.669 34.3461 98.1191 32.3165 96.9256C30.2144 95.6575 26.88 94.3147 24.8504 93.7926C22.0959 93.1212 20.5012 93.1212 18.3266 93.7926C16.7318 94.2401 14.1948 95.8812 12.7451 97.4478C11.2953 98.9397 9.70064 101.103 9.3382 102.296C8.90328 103.415 8.54084 105.877 8.54084 107.817C8.54084 110.129 9.12073 112.442 10.208 114.381C11.2228 116.246 13.1075 118.111 15.0646 119.23C17.5292 120.647 19.3414 121.095 22.6758 121.02C26.0101 121.02 28.7646 120.274 34.6361 117.887C38.8403 116.246 43.6969 114.456 45.5091 114.083C47.7562 113.561 49.6408 113.561 54.5699 114.978L51.308 115.873C49.4958 116.321 43.9869 118.782 38.9853 121.244C33.9837 123.78 28.1847 126.167 26.1551 126.615C24.053 127.062 20.9361 127.435 19.2689 127.435C17.5292 127.435 14.5572 126.988 12.5276 126.316C10.5705 125.72 7.74349 124.302 6.36624 123.109C4.989 121.915 3.03186 119.304 2.08953 117.29C0.78477 114.53 0.349854 112.367 0.349854 108.413C0.349854 104.833 0.784773 102.147 1.79959 99.8348C2.59694 97.9699 4.33662 95.2099 5.71387 93.5688C7.09111 92.0023 9.19322 90.2119 10.353 89.6152Z" fill="white"/>
<path d="M171.771 42.6805C174.647 42.6805 176.979 40.3487 176.979 37.4721C176.979 34.5956 174.647 32.2637 171.771 32.2637C168.894 32.2637 166.562 34.5956 166.562 37.4721C166.562 40.3487 168.894 42.6805 171.771 42.6805Z" fill="#FF4500"/>
</svg>
